<mxfile host="app.diagrams.net" modified="2024-04-15T20:11:33.491Z" agent="Mozilla/5.0 (Windows NT 10.0; Win64; x64) AppleWebKit/537.36 (KHTML, like Gecko) Chrome/123.0.0.0 Safari/537.36" etag="ML0HvE4uJBArfCzrz4Jf" version="24.2.3" type="device">
  <diagram name="Página-1" id="4-KUc0o0GkvM-XNJCKcv">
    <mxGraphModel dx="1354" dy="638" grid="1" gridSize="10" guides="1" tooltips="1" connect="1" arrows="1" fold="1" page="1" pageScale="1" pageWidth="827" pageHeight="1169" math="0" shadow="0">
      <root>
        <mxCell id="0" />
        <mxCell id="1" parent="0" />
        <mxCell id="AwbhpHqU0Ukdg4uiP-lh-1" value="" style="verticalLabelPosition=bottom;verticalAlign=top;html=1;shadow=0;dashed=0;strokeWidth=1;shape=mxgraph.android.phone2;strokeColor=#c0c0c0;" parent="1" vertex="1">
          <mxGeometry x="20" y="40" width="200" height="390" as="geometry" />
        </mxCell>
        <mxCell id="AwbhpHqU0Ukdg4uiP-lh-2" value="" style="strokeWidth=1;shadow=0;dashed=0;align=center;html=1;shape=mxgraph.mockup.containers.browserWindow;rSize=0;strokeColor=#666666;strokeColor2=#008cff;strokeColor3=#c4c4c4;mainText=,;recursiveResize=0;" parent="1" vertex="1">
          <mxGeometry y="1180" width="1060" height="1251" as="geometry" />
        </mxCell>
        <mxCell id="lfW6KVarJjC59Z06hN5a-29" value="" style="rounded=0;whiteSpace=wrap;html=1;" vertex="1" parent="AwbhpHqU0Ukdg4uiP-lh-2">
          <mxGeometry y="160" width="1060" height="210" as="geometry" />
        </mxCell>
        <mxCell id="AwbhpHqU0Ukdg4uiP-lh-3" value="Page 1" style="strokeWidth=1;shadow=0;dashed=0;align=center;html=1;shape=mxgraph.mockup.containers.anchor;fontSize=17;fontColor=#666666;align=left;whiteSpace=wrap;" parent="AwbhpHqU0Ukdg4uiP-lh-2" vertex="1">
          <mxGeometry x="60" y="12" width="110" height="26" as="geometry" />
        </mxCell>
        <mxCell id="AwbhpHqU0Ukdg4uiP-lh-4" value="https://www.draw.io" style="strokeWidth=1;shadow=0;dashed=0;align=center;html=1;shape=mxgraph.mockup.containers.anchor;rSize=0;fontSize=17;fontColor=#666666;align=left;" parent="AwbhpHqU0Ukdg4uiP-lh-2" vertex="1">
          <mxGeometry x="130" y="60" width="250" height="26" as="geometry" />
        </mxCell>
        <mxCell id="lfW6KVarJjC59Z06hN5a-1" value="" style="rounded=0;whiteSpace=wrap;html=1;" vertex="1" parent="AwbhpHqU0Ukdg4uiP-lh-2">
          <mxGeometry y="110" width="1060" height="50" as="geometry" />
        </mxCell>
        <mxCell id="lfW6KVarJjC59Z06hN5a-2" value="Home" style="text;html=1;align=center;verticalAlign=middle;whiteSpace=wrap;rounded=0;" vertex="1" parent="AwbhpHqU0Ukdg4uiP-lh-2">
          <mxGeometry x="640" y="120" width="60" height="30" as="geometry" />
        </mxCell>
        <mxCell id="lfW6KVarJjC59Z06hN5a-3" value="Sobre" style="text;html=1;align=center;verticalAlign=middle;whiteSpace=wrap;rounded=0;" vertex="1" parent="AwbhpHqU0Ukdg4uiP-lh-2">
          <mxGeometry x="710" y="120" width="60" height="30" as="geometry" />
        </mxCell>
        <mxCell id="lfW6KVarJjC59Z06hN5a-16" value="Descubra a Bmw" style="text;html=1;align=center;verticalAlign=middle;whiteSpace=wrap;rounded=0;" vertex="1" parent="AwbhpHqU0Ukdg4uiP-lh-2">
          <mxGeometry x="770" y="120" width="110" height="30" as="geometry" />
        </mxCell>
        <mxCell id="lfW6KVarJjC59Z06hN5a-24" value="Manual do Proprietário" style="text;html=1;align=center;verticalAlign=middle;whiteSpace=wrap;rounded=0;" vertex="1" parent="AwbhpHqU0Ukdg4uiP-lh-2">
          <mxGeometry x="880" y="120" width="130" height="30" as="geometry" />
        </mxCell>
        <mxCell id="lfW6KVarJjC59Z06hN5a-25" value="" style="sketch=0;outlineConnect=0;fontColor=#232F3E;gradientColor=none;fillColor=#ED7100;strokeColor=none;dashed=0;verticalLabelPosition=bottom;verticalAlign=top;align=center;html=1;fontSize=12;fontStyle=0;aspect=fixed;pointerEvents=1;shape=mxgraph.aws4.container_registry_image;" vertex="1" parent="AwbhpHqU0Ukdg4uiP-lh-2">
          <mxGeometry x="40" y="120" width="80" height="80" as="geometry" />
        </mxCell>
        <mxCell id="lfW6KVarJjC59Z06hN5a-26" value="&lt;font style=&quot;font-size: 24px;&quot;&gt;Descubra e se inspire&lt;/font&gt;" style="text;html=1;align=center;verticalAlign=middle;whiteSpace=wrap;rounded=0;" vertex="1" parent="AwbhpHqU0Ukdg4uiP-lh-2">
          <mxGeometry x="375" y="230" width="310" height="30" as="geometry" />
        </mxCell>
        <mxCell id="lfW6KVarJjC59Z06hN5a-28" value="Banner" style="text;html=1;align=center;verticalAlign=middle;whiteSpace=wrap;rounded=0;" vertex="1" parent="AwbhpHqU0Ukdg4uiP-lh-2">
          <mxGeometry x="940" y="170" width="60" height="30" as="geometry" />
        </mxCell>
        <mxCell id="lfW6KVarJjC59Z06hN5a-30" value="" style="rounded=1;whiteSpace=wrap;html=1;" vertex="1" parent="AwbhpHqU0Ukdg4uiP-lh-2">
          <mxGeometry x="90" y="491" width="260" height="139" as="geometry" />
        </mxCell>
        <mxCell id="lfW6KVarJjC59Z06hN5a-31" value="&lt;font style=&quot;font-size: 24px;&quot;&gt;Peças BMW&lt;/font&gt;" style="text;html=1;align=center;verticalAlign=middle;whiteSpace=wrap;rounded=0;" vertex="1" parent="AwbhpHqU0Ukdg4uiP-lh-2">
          <mxGeometry x="110" y="521" width="220" height="30" as="geometry" />
        </mxCell>
        <mxCell id="lfW6KVarJjC59Z06hN5a-32" value="&lt;font style=&quot;font-size: 14px;&quot;&gt;Se informe sobre sua Bmw aqui&lt;/font&gt;" style="text;html=1;align=center;verticalAlign=middle;whiteSpace=wrap;rounded=0;" vertex="1" parent="AwbhpHqU0Ukdg4uiP-lh-2">
          <mxGeometry x="65" y="551" width="310" height="30" as="geometry" />
        </mxCell>
        <mxCell id="lfW6KVarJjC59Z06hN5a-33" value="" style="rounded=1;whiteSpace=wrap;html=1;" vertex="1" parent="AwbhpHqU0Ukdg4uiP-lh-2">
          <mxGeometry x="400" y="491" width="260" height="139" as="geometry" />
        </mxCell>
        <mxCell id="lfW6KVarJjC59Z06hN5a-34" value="&lt;font style=&quot;font-size: 24px;&quot;&gt;Peças BMW&lt;/font&gt;" style="text;html=1;align=center;verticalAlign=middle;whiteSpace=wrap;rounded=0;" vertex="1" parent="AwbhpHqU0Ukdg4uiP-lh-2">
          <mxGeometry x="420" y="521" width="220" height="30" as="geometry" />
        </mxCell>
        <mxCell id="lfW6KVarJjC59Z06hN5a-35" value="&lt;font style=&quot;font-size: 14px;&quot;&gt;Se informe sobre sua Bmw aqui&lt;/font&gt;" style="text;html=1;align=center;verticalAlign=middle;whiteSpace=wrap;rounded=0;" vertex="1" parent="AwbhpHqU0Ukdg4uiP-lh-2">
          <mxGeometry x="375" y="551" width="310" height="30" as="geometry" />
        </mxCell>
        <mxCell id="lfW6KVarJjC59Z06hN5a-36" value="" style="rounded=1;whiteSpace=wrap;html=1;" vertex="1" parent="AwbhpHqU0Ukdg4uiP-lh-2">
          <mxGeometry x="715" y="491" width="260" height="139" as="geometry" />
        </mxCell>
        <mxCell id="lfW6KVarJjC59Z06hN5a-37" value="&lt;font style=&quot;font-size: 24px;&quot;&gt;Peças BMW&lt;/font&gt;" style="text;html=1;align=center;verticalAlign=middle;whiteSpace=wrap;rounded=0;" vertex="1" parent="AwbhpHqU0Ukdg4uiP-lh-2">
          <mxGeometry x="735" y="521" width="220" height="30" as="geometry" />
        </mxCell>
        <mxCell id="lfW6KVarJjC59Z06hN5a-38" value="&lt;font style=&quot;font-size: 14px;&quot;&gt;Se informe sobre sua Bmw aqui&lt;/font&gt;" style="text;html=1;align=center;verticalAlign=middle;whiteSpace=wrap;rounded=0;" vertex="1" parent="AwbhpHqU0Ukdg4uiP-lh-2">
          <mxGeometry x="690" y="551" width="310" height="30" as="geometry" />
        </mxCell>
        <mxCell id="lfW6KVarJjC59Z06hN5a-40" value="&lt;h1 style=&quot;margin-top: 0px;&quot;&gt;Origem da Bmw&lt;/h1&gt;&lt;p&gt;Lorem ipsum dolor sit amet, consectetur adipisicing elit, sed do eiusmod tempor incididunt ut labore et dolore magna aliqua.&lt;span style=&quot;background-color: initial;&quot;&gt;Lorem ipsum dolor sit amet, consectetur adipisicing elit, sed do eiusmod tempor incididunt ut labore et dolore magna aliqua.&lt;/span&gt;&lt;span style=&quot;background-color: initial;&quot;&gt;Lorem ipsum dolor sit amet, consectetur adipisicing elit, sed do eiusmod tempor incididunt ut labore et dolore magna aliqua.&lt;/span&gt;&lt;span style=&quot;background-color: initial;&quot;&gt;Lorem ipsum dolor sit amet, consectetur adipisicing elit, sed do eiusmod tempor incididunt ut labore et dolore magna aliqua.&lt;/span&gt;&lt;span style=&quot;background-color: initial;&quot;&gt;Lorem ipsum dolor sit amet, consectetur adipisicing elit, sed do eiusmod tempor incididunt ut labore et dolore magna aliqua.&lt;br&gt;&lt;br&gt;&lt;/span&gt;Lorem ipsum dolor sit amet, consectetur adipisicing elit, sed do eiusmod tempor incididunt ut labore et dolore magna aliqua.&lt;span style=&quot;background-color: initial;&quot;&gt;Lorem ipsum dolor sit amet, consectetur adipisicing elit, sed do eiusmod tempor incididunt ut labore et dolore magna aliqua.&lt;/span&gt;&lt;span style=&quot;background-color: initial;&quot;&gt;Lorem ipsum dolor sit amet, consectetur adipisicing elit, sed do eiusmod tempor incididunt ut labore et dolore magna aliqua.&lt;/span&gt;&lt;span style=&quot;background-color: initial;&quot;&gt;Lorem ipsum dolor sit amet, consectetur adipisicing elit, sed do eiusmod tempor incididunt ut labore et dolore magna aliqua.&lt;br&gt;&lt;/span&gt;&lt;span style=&quot;background-color: initial;&quot;&gt;&lt;br&gt;&lt;/span&gt;Lorem ipsum dolor sit amet, consectetur adipisicing elit, sed do eiusmod tempor incididunt ut labore et dolore magna aliqua.&lt;span style=&quot;background-color: initial;&quot;&gt;Lorem ipsum dolor sit amet, consectetur adipisicing elit, sed do eiusmod tempor incididunt ut labore et dolore magna aliqua.&lt;/span&gt;&lt;span style=&quot;background-color: initial;&quot;&gt;Lorem ipsum dolor sit amet, consectetur adipisicing elit, sed do eiusmod tempor incididunt ut labore et dolore magna aliqua.&lt;/span&gt;&lt;span style=&quot;background-color: initial;&quot;&gt;Lorem ipsum dolor sit amet, consectetur adipisicing elit, sed do eiusmod tempor incididunt ut labore et dolore magna aliqua.&lt;/span&gt;&lt;span style=&quot;background-color: initial;&quot;&gt;&lt;br&gt;&lt;/span&gt;&lt;/p&gt;" style="text;html=1;whiteSpace=wrap;overflow=hidden;rounded=0;" vertex="1" parent="AwbhpHqU0Ukdg4uiP-lh-2">
          <mxGeometry x="100" y="691" width="730" height="309" as="geometry" />
        </mxCell>
        <mxCell id="lfW6KVarJjC59Z06hN5a-41" value="Bibliografia" style="text;html=1;align=center;verticalAlign=middle;whiteSpace=wrap;rounded=0;" vertex="1" parent="AwbhpHqU0Ukdg4uiP-lh-2">
          <mxGeometry x="100" y="1011" width="60" height="30" as="geometry" />
        </mxCell>
        <mxCell id="lfW6KVarJjC59Z06hN5a-42" value="" style="rounded=0;whiteSpace=wrap;html=1;" vertex="1" parent="AwbhpHqU0Ukdg4uiP-lh-2">
          <mxGeometry y="1140" width="1060" height="111" as="geometry" />
        </mxCell>
        <mxCell id="lfW6KVarJjC59Z06hN5a-43" value="" style="sketch=0;outlineConnect=0;fontColor=#232F3E;gradientColor=none;fillColor=#ED7100;strokeColor=none;dashed=0;verticalLabelPosition=bottom;verticalAlign=top;align=center;html=1;fontSize=12;fontStyle=0;aspect=fixed;pointerEvents=1;shape=mxgraph.aws4.container_registry_image;" vertex="1" parent="AwbhpHqU0Ukdg4uiP-lh-2">
          <mxGeometry x="975" y="1169" width="48" height="48" as="geometry" />
        </mxCell>
        <mxCell id="lfW6KVarJjC59Z06hN5a-44" value="" style="sketch=0;outlineConnect=0;fontColor=#232F3E;gradientColor=none;fillColor=#ED7100;strokeColor=none;dashed=0;verticalLabelPosition=bottom;verticalAlign=top;align=center;html=1;fontSize=12;fontStyle=0;aspect=fixed;pointerEvents=1;shape=mxgraph.aws4.container_registry_image;" vertex="1" parent="AwbhpHqU0Ukdg4uiP-lh-2">
          <mxGeometry x="921" y="1169" width="48" height="48" as="geometry" />
        </mxCell>
        <mxCell id="lfW6KVarJjC59Z06hN5a-45" value="" style="sketch=0;outlineConnect=0;fontColor=#232F3E;gradientColor=none;fillColor=#ED7100;strokeColor=none;dashed=0;verticalLabelPosition=bottom;verticalAlign=top;align=center;html=1;fontSize=12;fontStyle=0;aspect=fixed;pointerEvents=1;shape=mxgraph.aws4.container_registry_image;" vertex="1" parent="AwbhpHqU0Ukdg4uiP-lh-2">
          <mxGeometry x="870" y="1169" width="48" height="48" as="geometry" />
        </mxCell>
        <mxCell id="lfW6KVarJjC59Z06hN5a-46" value="Copyright" style="text;html=1;align=center;verticalAlign=middle;whiteSpace=wrap;rounded=0;" vertex="1" parent="AwbhpHqU0Ukdg4uiP-lh-2">
          <mxGeometry x="50" y="1178" width="60" height="30" as="geometry" />
        </mxCell>
        <mxCell id="lfW6KVarJjC59Z06hN5a-47" value="" style="rounded=0;whiteSpace=wrap;html=1;" vertex="1" parent="1">
          <mxGeometry x="30" y="70" width="190" height="60" as="geometry" />
        </mxCell>
        <mxCell id="lfW6KVarJjC59Z06hN5a-48" value="" style="sketch=0;outlineConnect=0;fontColor=#232F3E;gradientColor=none;fillColor=#ED7100;strokeColor=none;dashed=0;verticalLabelPosition=bottom;verticalAlign=top;align=center;html=1;fontSize=12;fontStyle=0;aspect=fixed;pointerEvents=1;shape=mxgraph.aws4.container_registry_image;" vertex="1" parent="1">
          <mxGeometry x="40" y="76" width="48" height="48" as="geometry" />
        </mxCell>
        <mxCell id="lfW6KVarJjC59Z06hN5a-53" value="" style="line;strokeWidth=2;html=1;" vertex="1" parent="1">
          <mxGeometry x="180" y="90" width="10" height="10" as="geometry" />
        </mxCell>
        <mxCell id="lfW6KVarJjC59Z06hN5a-54" value="" style="line;strokeWidth=2;html=1;" vertex="1" parent="1">
          <mxGeometry x="200" y="90" width="10" height="10" as="geometry" />
        </mxCell>
        <mxCell id="lfW6KVarJjC59Z06hN5a-55" value="" style="line;strokeWidth=2;html=1;" vertex="1" parent="1">
          <mxGeometry x="180" y="100" width="30" height="10" as="geometry" />
        </mxCell>
        <mxCell id="lfW6KVarJjC59Z06hN5a-56" value="" style="line;strokeWidth=2;html=1;" vertex="1" parent="1">
          <mxGeometry x="180" y="110" width="10" height="10" as="geometry" />
        </mxCell>
        <mxCell id="lfW6KVarJjC59Z06hN5a-57" value="" style="line;strokeWidth=2;html=1;" vertex="1" parent="1">
          <mxGeometry x="200" y="110" width="10" height="10" as="geometry" />
        </mxCell>
        <mxCell id="lfW6KVarJjC59Z06hN5a-59" value="Descubra e se inspire" style="rounded=0;whiteSpace=wrap;html=1;" vertex="1" parent="1">
          <mxGeometry x="30" y="130" width="190" height="100" as="geometry" />
        </mxCell>
        <mxCell id="lfW6KVarJjC59Z06hN5a-60" value="" style="rounded=0;whiteSpace=wrap;html=1;" vertex="1" parent="1">
          <mxGeometry x="30" y="230" width="190" height="790" as="geometry" />
        </mxCell>
        <mxCell id="lfW6KVarJjC59Z06hN5a-61" value="" style="rounded=1;whiteSpace=wrap;html=1;" vertex="1" parent="1">
          <mxGeometry x="50" y="260" width="150" height="80" as="geometry" />
        </mxCell>
        <mxCell id="lfW6KVarJjC59Z06hN5a-62" value="&lt;h1 style=&quot;margin-top: 0px;&quot;&gt;&lt;font style=&quot;font-size: 18px;&quot;&gt;Peças BMW&lt;/font&gt;&lt;/h1&gt;" style="text;html=1;whiteSpace=wrap;overflow=hidden;rounded=0;" vertex="1" parent="1">
          <mxGeometry x="69" y="260" width="112" height="40" as="geometry" />
        </mxCell>
        <mxCell id="lfW6KVarJjC59Z06hN5a-63" value="Se informe sobre sua peça aqui" style="text;html=1;align=center;verticalAlign=middle;whiteSpace=wrap;rounded=0;" vertex="1" parent="1">
          <mxGeometry x="65" y="290" width="120" height="30" as="geometry" />
        </mxCell>
        <mxCell id="lfW6KVarJjC59Z06hN5a-64" value="" style="rounded=1;whiteSpace=wrap;html=1;" vertex="1" parent="1">
          <mxGeometry x="50" y="350" width="150" height="80" as="geometry" />
        </mxCell>
        <mxCell id="lfW6KVarJjC59Z06hN5a-65" value="&lt;h1 style=&quot;margin-top: 0px;&quot;&gt;&lt;font style=&quot;font-size: 18px;&quot;&gt;Modelos BMW&lt;/font&gt;&lt;/h1&gt;" style="text;html=1;whiteSpace=wrap;overflow=hidden;rounded=0;" vertex="1" parent="1">
          <mxGeometry x="60" y="350" width="131" height="40" as="geometry" />
        </mxCell>
        <mxCell id="lfW6KVarJjC59Z06hN5a-66" value="Encontre seu carro aqui" style="text;html=1;align=center;verticalAlign=middle;whiteSpace=wrap;rounded=0;" vertex="1" parent="1">
          <mxGeometry x="65.5" y="390" width="120" height="30" as="geometry" />
        </mxCell>
        <mxCell id="lfW6KVarJjC59Z06hN5a-67" value="" style="rounded=1;whiteSpace=wrap;html=1;" vertex="1" parent="1">
          <mxGeometry x="50" y="440" width="150" height="80" as="geometry" />
        </mxCell>
        <mxCell id="lfW6KVarJjC59Z06hN5a-68" value="&lt;h1 style=&quot;margin-top: 0px;&quot;&gt;&lt;font style=&quot;font-size: 14px;&quot;&gt;Novas Tecnologias&lt;/font&gt;&lt;/h1&gt;" style="text;html=1;whiteSpace=wrap;overflow=hidden;rounded=0;" vertex="1" parent="1">
          <mxGeometry x="60" y="440" width="180" height="60" as="geometry" />
        </mxCell>
        <mxCell id="lfW6KVarJjC59Z06hN5a-69" value="Descubra as novidades da tecnologia BMW" style="text;html=1;align=center;verticalAlign=middle;whiteSpace=wrap;rounded=0;" vertex="1" parent="1">
          <mxGeometry x="60" y="480" width="130" height="30" as="geometry" />
        </mxCell>
        <mxCell id="lfW6KVarJjC59Z06hN5a-70" value="&lt;h1 style=&quot;margin-top: 0px;&quot;&gt;&lt;font style=&quot;font-size: 18px;&quot;&gt;Origem da&lt;/font&gt; &lt;font style=&quot;font-size: 18px;&quot;&gt;BMW&lt;/font&gt;&lt;/h1&gt;&lt;p&gt;Lorem ipsum dolor sit amet, consectetur adipisicing elit, sed do eiusmod tempor incididunt ut labore et dolore magna aliqua.&lt;br&gt;&lt;br&gt;Lorem ipsum dolor sit amet, consectetur adipisicing elit, sed do eiusmod tempor incididunt ut labore et dolore magna aliqua.&lt;br&gt;&lt;br&gt;Lorem ipsum dolor sit amet, consectetur adipisicing elit, sed do eiusmod tempor incididunt ut labore et dolore magna aliqua.&lt;br&gt;&lt;br&gt;Lorem ipsum dolor sit amet, consectetur adipisicing elit, sed do eiusmod tempor incididunt ut labore et dolore magna aliqua.&lt;br&gt;&lt;br&gt;Bibliografia&lt;/p&gt;" style="text;html=1;whiteSpace=wrap;overflow=hidden;rounded=0;" vertex="1" parent="1">
          <mxGeometry x="40" y="540" width="180" height="390" as="geometry" />
        </mxCell>
        <mxCell id="lfW6KVarJjC59Z06hN5a-71" value="" style="rounded=0;whiteSpace=wrap;html=1;" vertex="1" parent="1">
          <mxGeometry x="30" y="960" width="190" height="60" as="geometry" />
        </mxCell>
        <mxCell id="lfW6KVarJjC59Z06hN5a-72" value="" style="sketch=0;outlineConnect=0;fontColor=#232F3E;gradientColor=none;fillColor=#ED7100;strokeColor=none;dashed=0;verticalLabelPosition=bottom;verticalAlign=top;align=center;html=1;fontSize=12;fontStyle=0;aspect=fixed;pointerEvents=1;shape=mxgraph.aws4.container_registry_image;" vertex="1" parent="1">
          <mxGeometry x="80" y="970" width="24" height="24" as="geometry" />
        </mxCell>
        <mxCell id="lfW6KVarJjC59Z06hN5a-74" value="" style="sketch=0;outlineConnect=0;fontColor=#232F3E;gradientColor=none;fillColor=#ED7100;strokeColor=none;dashed=0;verticalLabelPosition=bottom;verticalAlign=top;align=center;html=1;fontSize=12;fontStyle=0;aspect=fixed;pointerEvents=1;shape=mxgraph.aws4.container_registry_image;" vertex="1" parent="1">
          <mxGeometry x="108" y="970" width="24" height="24" as="geometry" />
        </mxCell>
        <mxCell id="lfW6KVarJjC59Z06hN5a-75" value="" style="sketch=0;outlineConnect=0;fontColor=#232F3E;gradientColor=none;fillColor=#ED7100;strokeColor=none;dashed=0;verticalLabelPosition=bottom;verticalAlign=top;align=center;html=1;fontSize=12;fontStyle=0;aspect=fixed;pointerEvents=1;shape=mxgraph.aws4.container_registry_image;" vertex="1" parent="1">
          <mxGeometry x="138" y="970" width="24" height="24" as="geometry" />
        </mxCell>
        <mxCell id="lfW6KVarJjC59Z06hN5a-76" value="Copyright" style="text;html=1;align=center;verticalAlign=middle;whiteSpace=wrap;rounded=0;" vertex="1" parent="1">
          <mxGeometry x="90" y="990" width="60" height="30" as="geometry" />
        </mxCell>
      </root>
    </mxGraphModel>
  </diagram>
</mxfile>
